<svg fill="none" height="16" viewBox="0 0 16 16" width="16" xmlns="http://www.w3.org/2000/svg">
<path d="m1.429.044c-.626.134-1.121.576-1.34 1.196l-.076.213-.007 1.747c-.009 1.968-.007 2 .181 2.387.118.244.271.438.475.604.077.064.995.591 2.04 1.171l1.898 1.056.015 2.304c.014 2.069.02 2.322.061 2.478.102.382.343.755.631.977.145.111 2.585 1.481 2.947 1.654.264.126.53.178.826.16.457-.026.866-.208 1.185-.526.208-.208.35-.44.449-.732l.072-.213.009-1.773.009-1.774 1.882-1.146c1.035-.631 1.949-1.198 2.031-1.261.202-.154.384-.377.509-.625.189-.375.191-.398.182-2.154l-.008-1.56-.075-.213c-.238-.672-.797-1.125-1.5-1.214-.243-.031-.562.005-.794.089-.091.033-.797.411-1.568.839s-1.414.779-1.429.779c-.014 0-1.663-.955-3.664-2.123-2-1.167-3.706-2.157-3.79-2.2-.329-.168-.772-.221-1.151-.14m1.811 2.3 1.36.795.007 1.754c.006 1.631.004 1.752-.038 1.736-.135-.052-2.937-1.627-2.976-1.673-.043-.051-.046-.17-.046-1.654v-1.599l.078-.078c.055-.056.103-.078.166-.077.067.001.422.196 1.449.796m4.529 2.642 1.484.867v1.687c0 .928-.004 1.687-.009 1.687s-.698-.383-1.54-.85l-1.531-.85-.007-1.738-.006-1.738.063.035c.034.019.73.424 1.546.9m5.965-.626c.043.022.09.064.105.092.018.033.028.533.028 1.423 0 1.269-.004 1.377-.047 1.427-.026.03-.671.435-1.433.9-.763.465-1.432.874-1.487.909l-.1.063.001-1.66.001-1.661 1.203-.666c1.772-.982 1.593-.897 1.729-.827m-6.008 5.793 1.526.847.001 1.621c0 1.412-.005 1.632-.041 1.701-.042.081-.13.131-.231.131-.06 0-2.632-1.417-2.74-1.511l-.068-.057-.007-1.789c-.004-.984.002-1.789.013-1.789s.707.381 1.547.846" fill="#000" fill-rule="evenodd"/>
</svg>